<mxfile host="app.diagrams.net" agent="Mozilla/5.0 (Windows NT 10.0; Win64; x64) AppleWebKit/537.36 (KHTML, like Gecko) Chrome/132.0.0.0 Safari/537.36 OPR/117.0.0.0" version="26.2.13">
  <diagram name="Page-1" id="42OMd-n1E61mf12vBxvX">
    <mxGraphModel dx="2264" dy="1903" grid="1" gridSize="10" guides="1" tooltips="1" connect="1" arrows="1" fold="1" page="1" pageScale="1" pageWidth="850" pageHeight="1100" math="0" shadow="0">
      <root>
        <mxCell id="0" />
        <mxCell id="1" parent="0" />
        <mxCell id="WZFhTyCouCG3s2GY0Dsn-1" value="Manager" style="shape=umlActor;verticalLabelPosition=bottom;verticalAlign=top;html=1;outlineConnect=0;" vertex="1" parent="1">
          <mxGeometry x="-520" y="1140" width="30" height="60" as="geometry" />
        </mxCell>
        <mxCell id="WZFhTyCouCG3s2GY0Dsn-3" value="Resident Management" style="swimlane;whiteSpace=wrap;html=1;" vertex="1" parent="1">
          <mxGeometry x="90" y="-260" width="770" height="480" as="geometry" />
        </mxCell>
        <mxCell id="WZFhTyCouCG3s2GY0Dsn-8" value="Manage resident" style="ellipse;whiteSpace=wrap;html=1;fillColor=#fff2cc;strokeColor=light-dark(#000000, #6d5100);strokeWidth=2;" vertex="1" parent="WZFhTyCouCG3s2GY0Dsn-3">
          <mxGeometry x="60" y="210" width="120" height="80" as="geometry" />
        </mxCell>
        <mxCell id="WZFhTyCouCG3s2GY0Dsn-10" value="Extends" style="endArrow=block;endSize=16;endFill=0;html=1;rounded=0;exitX=0;exitY=0.5;exitDx=0;exitDy=0;entryX=0.5;entryY=0;entryDx=0;entryDy=0;" edge="1" parent="WZFhTyCouCG3s2GY0Dsn-3" source="WZFhTyCouCG3s2GY0Dsn-23" target="WZFhTyCouCG3s2GY0Dsn-8">
          <mxGeometry width="160" relative="1" as="geometry">
            <mxPoint x="340" y="90" as="sourcePoint" />
            <mxPoint x="300" y="130" as="targetPoint" />
          </mxGeometry>
        </mxCell>
        <mxCell id="WZFhTyCouCG3s2GY0Dsn-11" value="Extends" style="endArrow=block;endSize=16;endFill=0;html=1;rounded=0;exitX=0;exitY=0.5;exitDx=0;exitDy=0;entryX=1;entryY=0;entryDx=0;entryDy=0;" edge="1" parent="WZFhTyCouCG3s2GY0Dsn-3" source="WZFhTyCouCG3s2GY0Dsn-26" target="WZFhTyCouCG3s2GY0Dsn-8">
          <mxGeometry width="160" relative="1" as="geometry">
            <mxPoint x="340" y="200" as="sourcePoint" />
            <mxPoint x="340" y="330" as="targetPoint" />
          </mxGeometry>
        </mxCell>
        <mxCell id="WZFhTyCouCG3s2GY0Dsn-20" value="Extends" style="endArrow=block;endSize=16;endFill=0;html=1;rounded=0;exitX=0;exitY=0.5;exitDx=0;exitDy=0;entryX=1;entryY=1;entryDx=0;entryDy=0;" edge="1" parent="WZFhTyCouCG3s2GY0Dsn-3" source="WZFhTyCouCG3s2GY0Dsn-25" target="WZFhTyCouCG3s2GY0Dsn-8">
          <mxGeometry width="160" relative="1" as="geometry">
            <mxPoint x="340" y="310" as="sourcePoint" />
            <mxPoint x="190" y="250" as="targetPoint" />
          </mxGeometry>
        </mxCell>
        <mxCell id="WZFhTyCouCG3s2GY0Dsn-21" value="Extends" style="endArrow=block;endSize=16;endFill=0;html=1;rounded=0;exitX=0;exitY=0.5;exitDx=0;exitDy=0;entryX=0.5;entryY=1;entryDx=0;entryDy=0;" edge="1" parent="WZFhTyCouCG3s2GY0Dsn-3" source="WZFhTyCouCG3s2GY0Dsn-24" target="WZFhTyCouCG3s2GY0Dsn-8">
          <mxGeometry width="160" relative="1" as="geometry">
            <mxPoint x="357.57359312880726" y="391.7157287525381" as="sourcePoint" />
            <mxPoint x="172" y="278" as="targetPoint" />
          </mxGeometry>
        </mxCell>
        <mxCell id="WZFhTyCouCG3s2GY0Dsn-23" value="Add resident" style="ellipse;whiteSpace=wrap;html=1;fillColor=#fff2cc;strokeColor=light-dark(#000000, #6d5100);strokeWidth=2;" vertex="1" parent="WZFhTyCouCG3s2GY0Dsn-3">
          <mxGeometry x="340" y="50" width="140" height="70" as="geometry" />
        </mxCell>
        <mxCell id="WZFhTyCouCG3s2GY0Dsn-24" value="Delete resident" style="ellipse;whiteSpace=wrap;html=1;fillColor=#fff2cc;strokeColor=light-dark(#000000, #6d5100);strokeWidth=2;" vertex="1" parent="WZFhTyCouCG3s2GY0Dsn-3">
          <mxGeometry x="340" y="360" width="140" height="70" as="geometry" />
        </mxCell>
        <mxCell id="WZFhTyCouCG3s2GY0Dsn-25" value="Edit/Update resident" style="ellipse;whiteSpace=wrap;html=1;fillColor=#fff2cc;strokeColor=light-dark(#000000, #6d5100);strokeWidth=2;" vertex="1" parent="WZFhTyCouCG3s2GY0Dsn-3">
          <mxGeometry x="340" y="257" width="140" height="70" as="geometry" />
        </mxCell>
        <mxCell id="WZFhTyCouCG3s2GY0Dsn-26" value="View resident information" style="ellipse;whiteSpace=wrap;html=1;fillColor=#fff2cc;strokeColor=light-dark(#000000, #6d5100);strokeWidth=2;" vertex="1" parent="WZFhTyCouCG3s2GY0Dsn-3">
          <mxGeometry x="340" y="153" width="140" height="70" as="geometry" />
        </mxCell>
        <mxCell id="WZFhTyCouCG3s2GY0Dsn-27" value="Search resident" style="ellipse;whiteSpace=wrap;html=1;fillColor=#fff2cc;strokeColor=light-dark(#000000, #6d5100);strokeWidth=2;" vertex="1" parent="WZFhTyCouCG3s2GY0Dsn-3">
          <mxGeometry x="590" y="257" width="140" height="70" as="geometry" />
        </mxCell>
        <mxCell id="WZFhTyCouCG3s2GY0Dsn-31" value="&amp;lt;&amp;lt;Include&amp;gt;&amp;gt;" style="endArrow=open;endSize=12;dashed=1;html=1;rounded=0;exitX=1;exitY=0.5;exitDx=0;exitDy=0;entryX=0;entryY=0;entryDx=0;entryDy=0;" edge="1" parent="WZFhTyCouCG3s2GY0Dsn-3" source="WZFhTyCouCG3s2GY0Dsn-26" target="WZFhTyCouCG3s2GY0Dsn-27">
          <mxGeometry width="160" relative="1" as="geometry">
            <mxPoint x="540" y="200" as="sourcePoint" />
            <mxPoint x="700" y="200" as="targetPoint" />
          </mxGeometry>
        </mxCell>
        <mxCell id="WZFhTyCouCG3s2GY0Dsn-32" value="&amp;lt;&amp;lt;Include&amp;gt;&amp;gt;" style="endArrow=open;endSize=12;dashed=1;html=1;rounded=0;exitX=1;exitY=0.5;exitDx=0;exitDy=0;entryX=0;entryY=1;entryDx=0;entryDy=0;" edge="1" parent="WZFhTyCouCG3s2GY0Dsn-3" source="WZFhTyCouCG3s2GY0Dsn-24" target="WZFhTyCouCG3s2GY0Dsn-27">
          <mxGeometry width="160" relative="1" as="geometry">
            <mxPoint x="490" y="198" as="sourcePoint" />
            <mxPoint x="621" y="277" as="targetPoint" />
          </mxGeometry>
        </mxCell>
        <mxCell id="WZFhTyCouCG3s2GY0Dsn-33" value="&amp;lt;&amp;lt;Include&amp;gt;&amp;gt;" style="endArrow=open;endSize=12;dashed=1;html=1;rounded=0;exitX=1;exitY=0.5;exitDx=0;exitDy=0;entryX=0;entryY=0.5;entryDx=0;entryDy=0;" edge="1" parent="WZFhTyCouCG3s2GY0Dsn-3" source="WZFhTyCouCG3s2GY0Dsn-25" target="WZFhTyCouCG3s2GY0Dsn-27">
          <mxGeometry width="160" relative="1" as="geometry">
            <mxPoint x="490" y="405" as="sourcePoint" />
            <mxPoint x="621" y="327" as="targetPoint" />
          </mxGeometry>
        </mxCell>
        <mxCell id="WZFhTyCouCG3s2GY0Dsn-34" value="Room Management" style="swimlane;whiteSpace=wrap;html=1;" vertex="1" parent="1">
          <mxGeometry x="90" y="250" width="770" height="480" as="geometry" />
        </mxCell>
        <mxCell id="WZFhTyCouCG3s2GY0Dsn-35" value="Manage room" style="ellipse;whiteSpace=wrap;html=1;fillColor=#fff2cc;strokeColor=light-dark(#000000, #6d5100);strokeWidth=2;" vertex="1" parent="WZFhTyCouCG3s2GY0Dsn-34">
          <mxGeometry x="60" y="210" width="120" height="80" as="geometry" />
        </mxCell>
        <mxCell id="WZFhTyCouCG3s2GY0Dsn-36" value="Extends" style="endArrow=block;endSize=16;endFill=0;html=1;rounded=0;exitX=0;exitY=0.5;exitDx=0;exitDy=0;entryX=0.5;entryY=0;entryDx=0;entryDy=0;" edge="1" parent="WZFhTyCouCG3s2GY0Dsn-34" source="WZFhTyCouCG3s2GY0Dsn-40" target="WZFhTyCouCG3s2GY0Dsn-35">
          <mxGeometry width="160" relative="1" as="geometry">
            <mxPoint x="340" y="90" as="sourcePoint" />
            <mxPoint x="300" y="130" as="targetPoint" />
          </mxGeometry>
        </mxCell>
        <mxCell id="WZFhTyCouCG3s2GY0Dsn-37" value="Extends" style="endArrow=block;endSize=16;endFill=0;html=1;rounded=0;exitX=0;exitY=0.5;exitDx=0;exitDy=0;entryX=1;entryY=0;entryDx=0;entryDy=0;" edge="1" parent="WZFhTyCouCG3s2GY0Dsn-34" source="WZFhTyCouCG3s2GY0Dsn-43" target="WZFhTyCouCG3s2GY0Dsn-35">
          <mxGeometry width="160" relative="1" as="geometry">
            <mxPoint x="340" y="200" as="sourcePoint" />
            <mxPoint x="340" y="330" as="targetPoint" />
          </mxGeometry>
        </mxCell>
        <mxCell id="WZFhTyCouCG3s2GY0Dsn-38" value="Extends" style="endArrow=block;endSize=16;endFill=0;html=1;rounded=0;exitX=0;exitY=0.5;exitDx=0;exitDy=0;entryX=1;entryY=1;entryDx=0;entryDy=0;" edge="1" parent="WZFhTyCouCG3s2GY0Dsn-34" source="WZFhTyCouCG3s2GY0Dsn-42" target="WZFhTyCouCG3s2GY0Dsn-35">
          <mxGeometry width="160" relative="1" as="geometry">
            <mxPoint x="340" y="310" as="sourcePoint" />
            <mxPoint x="190" y="250" as="targetPoint" />
          </mxGeometry>
        </mxCell>
        <mxCell id="WZFhTyCouCG3s2GY0Dsn-39" value="Extends" style="endArrow=block;endSize=16;endFill=0;html=1;rounded=0;exitX=0;exitY=0.5;exitDx=0;exitDy=0;entryX=0.5;entryY=1;entryDx=0;entryDy=0;" edge="1" parent="WZFhTyCouCG3s2GY0Dsn-34" source="WZFhTyCouCG3s2GY0Dsn-41" target="WZFhTyCouCG3s2GY0Dsn-35">
          <mxGeometry width="160" relative="1" as="geometry">
            <mxPoint x="357.57359312880726" y="391.7157287525381" as="sourcePoint" />
            <mxPoint x="172" y="278" as="targetPoint" />
          </mxGeometry>
        </mxCell>
        <mxCell id="WZFhTyCouCG3s2GY0Dsn-40" value="Add room" style="ellipse;whiteSpace=wrap;html=1;fillColor=#fff2cc;strokeColor=light-dark(#000000, #6d5100);strokeWidth=2;" vertex="1" parent="WZFhTyCouCG3s2GY0Dsn-34">
          <mxGeometry x="340" y="50" width="140" height="70" as="geometry" />
        </mxCell>
        <mxCell id="WZFhTyCouCG3s2GY0Dsn-41" value="Delete room" style="ellipse;whiteSpace=wrap;html=1;fillColor=#fff2cc;strokeColor=light-dark(#000000, #6d5100);strokeWidth=2;" vertex="1" parent="WZFhTyCouCG3s2GY0Dsn-34">
          <mxGeometry x="340" y="360" width="140" height="70" as="geometry" />
        </mxCell>
        <mxCell id="WZFhTyCouCG3s2GY0Dsn-42" value="Edit/Update room" style="ellipse;whiteSpace=wrap;html=1;fillColor=#fff2cc;strokeColor=light-dark(#000000, #6d5100);strokeWidth=2;" vertex="1" parent="WZFhTyCouCG3s2GY0Dsn-34">
          <mxGeometry x="340" y="257" width="140" height="70" as="geometry" />
        </mxCell>
        <mxCell id="WZFhTyCouCG3s2GY0Dsn-43" value="View room information" style="ellipse;whiteSpace=wrap;html=1;fillColor=#fff2cc;strokeColor=light-dark(#000000, #6d5100);strokeWidth=2;" vertex="1" parent="WZFhTyCouCG3s2GY0Dsn-34">
          <mxGeometry x="340" y="153" width="140" height="70" as="geometry" />
        </mxCell>
        <mxCell id="WZFhTyCouCG3s2GY0Dsn-44" value="Search room" style="ellipse;whiteSpace=wrap;html=1;fillColor=#fff2cc;strokeColor=light-dark(#000000, #6d5100);strokeWidth=2;" vertex="1" parent="WZFhTyCouCG3s2GY0Dsn-34">
          <mxGeometry x="590" y="257" width="140" height="70" as="geometry" />
        </mxCell>
        <mxCell id="WZFhTyCouCG3s2GY0Dsn-45" value="&amp;lt;&amp;lt;Include&amp;gt;&amp;gt;" style="endArrow=open;endSize=12;dashed=1;html=1;rounded=0;exitX=1;exitY=0.5;exitDx=0;exitDy=0;entryX=0;entryY=0;entryDx=0;entryDy=0;" edge="1" parent="WZFhTyCouCG3s2GY0Dsn-34" source="WZFhTyCouCG3s2GY0Dsn-43" target="WZFhTyCouCG3s2GY0Dsn-44">
          <mxGeometry width="160" relative="1" as="geometry">
            <mxPoint x="540" y="200" as="sourcePoint" />
            <mxPoint x="700" y="200" as="targetPoint" />
          </mxGeometry>
        </mxCell>
        <mxCell id="WZFhTyCouCG3s2GY0Dsn-46" value="&amp;lt;&amp;lt;Include&amp;gt;&amp;gt;" style="endArrow=open;endSize=12;dashed=1;html=1;rounded=0;exitX=1;exitY=0.5;exitDx=0;exitDy=0;entryX=0;entryY=1;entryDx=0;entryDy=0;" edge="1" parent="WZFhTyCouCG3s2GY0Dsn-34" source="WZFhTyCouCG3s2GY0Dsn-41" target="WZFhTyCouCG3s2GY0Dsn-44">
          <mxGeometry width="160" relative="1" as="geometry">
            <mxPoint x="490" y="198" as="sourcePoint" />
            <mxPoint x="621" y="277" as="targetPoint" />
          </mxGeometry>
        </mxCell>
        <mxCell id="WZFhTyCouCG3s2GY0Dsn-47" value="&amp;lt;&amp;lt;Include&amp;gt;&amp;gt;" style="endArrow=open;endSize=12;dashed=1;html=1;rounded=0;exitX=1;exitY=0.5;exitDx=0;exitDy=0;entryX=0;entryY=0.5;entryDx=0;entryDy=0;" edge="1" parent="WZFhTyCouCG3s2GY0Dsn-34" source="WZFhTyCouCG3s2GY0Dsn-42" target="WZFhTyCouCG3s2GY0Dsn-44">
          <mxGeometry width="160" relative="1" as="geometry">
            <mxPoint x="490" y="405" as="sourcePoint" />
            <mxPoint x="621" y="327" as="targetPoint" />
          </mxGeometry>
        </mxCell>
        <mxCell id="WZFhTyCouCG3s2GY0Dsn-48" value="Request processing" style="swimlane;whiteSpace=wrap;html=1;" vertex="1" parent="1">
          <mxGeometry x="90" y="750" width="540" height="260" as="geometry" />
        </mxCell>
        <mxCell id="WZFhTyCouCG3s2GY0Dsn-49" value="Receive request" style="ellipse;whiteSpace=wrap;html=1;fillColor=#fff2cc;strokeColor=light-dark(#000000, #6d5100);strokeWidth=2;" vertex="1" parent="WZFhTyCouCG3s2GY0Dsn-48">
          <mxGeometry x="60" y="117" width="120" height="80" as="geometry" />
        </mxCell>
        <mxCell id="WZFhTyCouCG3s2GY0Dsn-51" value="Extends" style="endArrow=block;endSize=16;endFill=0;html=1;rounded=0;exitX=0;exitY=0.5;exitDx=0;exitDy=0;entryX=1;entryY=0;entryDx=0;entryDy=0;" edge="1" parent="WZFhTyCouCG3s2GY0Dsn-48" source="WZFhTyCouCG3s2GY0Dsn-57" target="WZFhTyCouCG3s2GY0Dsn-49">
          <mxGeometry width="160" relative="1" as="geometry">
            <mxPoint x="340" y="107" as="sourcePoint" />
            <mxPoint x="340" y="237" as="targetPoint" />
          </mxGeometry>
        </mxCell>
        <mxCell id="WZFhTyCouCG3s2GY0Dsn-52" value="Extends" style="endArrow=block;endSize=16;endFill=0;html=1;rounded=0;exitX=0;exitY=0.5;exitDx=0;exitDy=0;entryX=1;entryY=1;entryDx=0;entryDy=0;" edge="1" parent="WZFhTyCouCG3s2GY0Dsn-48" source="WZFhTyCouCG3s2GY0Dsn-56" target="WZFhTyCouCG3s2GY0Dsn-49">
          <mxGeometry width="160" relative="1" as="geometry">
            <mxPoint x="340" y="217" as="sourcePoint" />
            <mxPoint x="190" y="157" as="targetPoint" />
          </mxGeometry>
        </mxCell>
        <mxCell id="WZFhTyCouCG3s2GY0Dsn-56" value="Reject request" style="ellipse;whiteSpace=wrap;html=1;fillColor=#fff2cc;strokeColor=light-dark(#000000, #6d5100);strokeWidth=2;" vertex="1" parent="WZFhTyCouCG3s2GY0Dsn-48">
          <mxGeometry x="340" y="164" width="140" height="70" as="geometry" />
        </mxCell>
        <mxCell id="WZFhTyCouCG3s2GY0Dsn-57" value="Accept request" style="ellipse;whiteSpace=wrap;html=1;fillColor=#fff2cc;strokeColor=light-dark(#000000, #6d5100);strokeWidth=2;" vertex="1" parent="WZFhTyCouCG3s2GY0Dsn-48">
          <mxGeometry x="340" y="60" width="140" height="70" as="geometry" />
        </mxCell>
        <mxCell id="WZFhTyCouCG3s2GY0Dsn-63" value="Renting Contract Management" style="swimlane;whiteSpace=wrap;html=1;" vertex="1" parent="1">
          <mxGeometry x="90" y="1040" width="770" height="480" as="geometry" />
        </mxCell>
        <mxCell id="WZFhTyCouCG3s2GY0Dsn-64" value="Manage renting contract" style="ellipse;whiteSpace=wrap;html=1;fillColor=#fff2cc;strokeColor=light-dark(#000000, #6d5100);strokeWidth=2;" vertex="1" parent="WZFhTyCouCG3s2GY0Dsn-63">
          <mxGeometry x="60" y="210" width="120" height="80" as="geometry" />
        </mxCell>
        <mxCell id="WZFhTyCouCG3s2GY0Dsn-65" value="Extends" style="endArrow=block;endSize=16;endFill=0;html=1;rounded=0;exitX=0;exitY=0.5;exitDx=0;exitDy=0;entryX=0.5;entryY=0;entryDx=0;entryDy=0;" edge="1" parent="WZFhTyCouCG3s2GY0Dsn-63" source="WZFhTyCouCG3s2GY0Dsn-69" target="WZFhTyCouCG3s2GY0Dsn-64">
          <mxGeometry width="160" relative="1" as="geometry">
            <mxPoint x="340" y="90" as="sourcePoint" />
            <mxPoint x="300" y="130" as="targetPoint" />
          </mxGeometry>
        </mxCell>
        <mxCell id="WZFhTyCouCG3s2GY0Dsn-66" value="Extends" style="endArrow=block;endSize=16;endFill=0;html=1;rounded=0;exitX=0;exitY=0.5;exitDx=0;exitDy=0;entryX=1;entryY=0;entryDx=0;entryDy=0;" edge="1" parent="WZFhTyCouCG3s2GY0Dsn-63" source="WZFhTyCouCG3s2GY0Dsn-72" target="WZFhTyCouCG3s2GY0Dsn-64">
          <mxGeometry width="160" relative="1" as="geometry">
            <mxPoint x="340" y="200" as="sourcePoint" />
            <mxPoint x="340" y="330" as="targetPoint" />
          </mxGeometry>
        </mxCell>
        <mxCell id="WZFhTyCouCG3s2GY0Dsn-67" value="Extends" style="endArrow=block;endSize=16;endFill=0;html=1;rounded=0;exitX=0;exitY=0.5;exitDx=0;exitDy=0;entryX=1;entryY=1;entryDx=0;entryDy=0;" edge="1" parent="WZFhTyCouCG3s2GY0Dsn-63" source="WZFhTyCouCG3s2GY0Dsn-71" target="WZFhTyCouCG3s2GY0Dsn-64">
          <mxGeometry width="160" relative="1" as="geometry">
            <mxPoint x="340" y="310" as="sourcePoint" />
            <mxPoint x="190" y="250" as="targetPoint" />
          </mxGeometry>
        </mxCell>
        <mxCell id="WZFhTyCouCG3s2GY0Dsn-68" value="Extends" style="endArrow=block;endSize=16;endFill=0;html=1;rounded=0;exitX=0;exitY=0.5;exitDx=0;exitDy=0;entryX=0.5;entryY=1;entryDx=0;entryDy=0;" edge="1" parent="WZFhTyCouCG3s2GY0Dsn-63" source="WZFhTyCouCG3s2GY0Dsn-70" target="WZFhTyCouCG3s2GY0Dsn-64">
          <mxGeometry width="160" relative="1" as="geometry">
            <mxPoint x="357.57359312880726" y="391.7157287525381" as="sourcePoint" />
            <mxPoint x="172" y="278" as="targetPoint" />
          </mxGeometry>
        </mxCell>
        <mxCell id="WZFhTyCouCG3s2GY0Dsn-69" value="Add contract" style="ellipse;whiteSpace=wrap;html=1;fillColor=#fff2cc;strokeColor=light-dark(#000000, #6d5100);strokeWidth=2;" vertex="1" parent="WZFhTyCouCG3s2GY0Dsn-63">
          <mxGeometry x="340" y="50" width="140" height="70" as="geometry" />
        </mxCell>
        <mxCell id="WZFhTyCouCG3s2GY0Dsn-70" value="Delete/End contract" style="ellipse;whiteSpace=wrap;html=1;fillColor=#fff2cc;strokeColor=light-dark(#000000, #6d5100);strokeWidth=2;" vertex="1" parent="WZFhTyCouCG3s2GY0Dsn-63">
          <mxGeometry x="340" y="360" width="140" height="70" as="geometry" />
        </mxCell>
        <mxCell id="WZFhTyCouCG3s2GY0Dsn-71" value="Edit/Update contract" style="ellipse;whiteSpace=wrap;html=1;fillColor=#fff2cc;strokeColor=light-dark(#000000, #6d5100);strokeWidth=2;" vertex="1" parent="WZFhTyCouCG3s2GY0Dsn-63">
          <mxGeometry x="340" y="257" width="140" height="70" as="geometry" />
        </mxCell>
        <mxCell id="WZFhTyCouCG3s2GY0Dsn-72" value="View contract information" style="ellipse;whiteSpace=wrap;html=1;fillColor=#fff2cc;strokeColor=light-dark(#000000, #6d5100);strokeWidth=2;" vertex="1" parent="WZFhTyCouCG3s2GY0Dsn-63">
          <mxGeometry x="340" y="153" width="140" height="70" as="geometry" />
        </mxCell>
        <mxCell id="WZFhTyCouCG3s2GY0Dsn-73" value="Search contract" style="ellipse;whiteSpace=wrap;html=1;fillColor=#fff2cc;strokeColor=light-dark(#000000, #6d5100);strokeWidth=2;" vertex="1" parent="WZFhTyCouCG3s2GY0Dsn-63">
          <mxGeometry x="590" y="257" width="140" height="70" as="geometry" />
        </mxCell>
        <mxCell id="WZFhTyCouCG3s2GY0Dsn-74" value="&amp;lt;&amp;lt;Include&amp;gt;&amp;gt;" style="endArrow=open;endSize=12;dashed=1;html=1;rounded=0;exitX=1;exitY=0.5;exitDx=0;exitDy=0;entryX=0;entryY=0;entryDx=0;entryDy=0;" edge="1" parent="WZFhTyCouCG3s2GY0Dsn-63" source="WZFhTyCouCG3s2GY0Dsn-72" target="WZFhTyCouCG3s2GY0Dsn-73">
          <mxGeometry width="160" relative="1" as="geometry">
            <mxPoint x="540" y="200" as="sourcePoint" />
            <mxPoint x="700" y="200" as="targetPoint" />
          </mxGeometry>
        </mxCell>
        <mxCell id="WZFhTyCouCG3s2GY0Dsn-75" value="&amp;lt;&amp;lt;Include&amp;gt;&amp;gt;" style="endArrow=open;endSize=12;dashed=1;html=1;rounded=0;exitX=1;exitY=0.5;exitDx=0;exitDy=0;entryX=0;entryY=1;entryDx=0;entryDy=0;" edge="1" parent="WZFhTyCouCG3s2GY0Dsn-63" source="WZFhTyCouCG3s2GY0Dsn-70" target="WZFhTyCouCG3s2GY0Dsn-73">
          <mxGeometry width="160" relative="1" as="geometry">
            <mxPoint x="490" y="198" as="sourcePoint" />
            <mxPoint x="621" y="277" as="targetPoint" />
          </mxGeometry>
        </mxCell>
        <mxCell id="WZFhTyCouCG3s2GY0Dsn-76" value="&amp;lt;&amp;lt;Include&amp;gt;&amp;gt;" style="endArrow=open;endSize=12;dashed=1;html=1;rounded=0;exitX=1;exitY=0.5;exitDx=0;exitDy=0;entryX=0;entryY=0.5;entryDx=0;entryDy=0;" edge="1" parent="WZFhTyCouCG3s2GY0Dsn-63" source="WZFhTyCouCG3s2GY0Dsn-71" target="WZFhTyCouCG3s2GY0Dsn-73">
          <mxGeometry width="160" relative="1" as="geometry">
            <mxPoint x="490" y="405" as="sourcePoint" />
            <mxPoint x="621" y="327" as="targetPoint" />
          </mxGeometry>
        </mxCell>
        <mxCell id="WZFhTyCouCG3s2GY0Dsn-77" value="Fee Management" style="swimlane;whiteSpace=wrap;html=1;" vertex="1" parent="1">
          <mxGeometry x="90" y="1550" width="770" height="480" as="geometry" />
        </mxCell>
        <mxCell id="WZFhTyCouCG3s2GY0Dsn-78" value="Manage fee" style="ellipse;whiteSpace=wrap;html=1;fillColor=#fff2cc;strokeColor=light-dark(#000000, #6d5100);strokeWidth=2;" vertex="1" parent="WZFhTyCouCG3s2GY0Dsn-77">
          <mxGeometry x="60" y="210" width="120" height="80" as="geometry" />
        </mxCell>
        <mxCell id="WZFhTyCouCG3s2GY0Dsn-79" value="Extends" style="endArrow=block;endSize=16;endFill=0;html=1;rounded=0;exitX=0;exitY=0.5;exitDx=0;exitDy=0;entryX=0.5;entryY=0;entryDx=0;entryDy=0;" edge="1" parent="WZFhTyCouCG3s2GY0Dsn-77" source="WZFhTyCouCG3s2GY0Dsn-83" target="WZFhTyCouCG3s2GY0Dsn-78">
          <mxGeometry width="160" relative="1" as="geometry">
            <mxPoint x="340" y="90" as="sourcePoint" />
            <mxPoint x="300" y="130" as="targetPoint" />
          </mxGeometry>
        </mxCell>
        <mxCell id="WZFhTyCouCG3s2GY0Dsn-80" value="Extends" style="endArrow=block;endSize=16;endFill=0;html=1;rounded=0;exitX=0;exitY=0.5;exitDx=0;exitDy=0;entryX=1;entryY=0;entryDx=0;entryDy=0;" edge="1" parent="WZFhTyCouCG3s2GY0Dsn-77" source="WZFhTyCouCG3s2GY0Dsn-86" target="WZFhTyCouCG3s2GY0Dsn-78">
          <mxGeometry width="160" relative="1" as="geometry">
            <mxPoint x="340" y="200" as="sourcePoint" />
            <mxPoint x="340" y="330" as="targetPoint" />
          </mxGeometry>
        </mxCell>
        <mxCell id="WZFhTyCouCG3s2GY0Dsn-81" value="Extends" style="endArrow=block;endSize=16;endFill=0;html=1;rounded=0;exitX=0;exitY=0.5;exitDx=0;exitDy=0;entryX=1;entryY=1;entryDx=0;entryDy=0;" edge="1" parent="WZFhTyCouCG3s2GY0Dsn-77" source="WZFhTyCouCG3s2GY0Dsn-85" target="WZFhTyCouCG3s2GY0Dsn-78">
          <mxGeometry width="160" relative="1" as="geometry">
            <mxPoint x="340" y="310" as="sourcePoint" />
            <mxPoint x="190" y="250" as="targetPoint" />
          </mxGeometry>
        </mxCell>
        <mxCell id="WZFhTyCouCG3s2GY0Dsn-82" value="Extends" style="endArrow=block;endSize=16;endFill=0;html=1;rounded=0;exitX=0;exitY=0.5;exitDx=0;exitDy=0;entryX=0.5;entryY=1;entryDx=0;entryDy=0;" edge="1" parent="WZFhTyCouCG3s2GY0Dsn-77" source="WZFhTyCouCG3s2GY0Dsn-84" target="WZFhTyCouCG3s2GY0Dsn-78">
          <mxGeometry width="160" relative="1" as="geometry">
            <mxPoint x="357.57359312880726" y="391.7157287525381" as="sourcePoint" />
            <mxPoint x="172" y="278" as="targetPoint" />
          </mxGeometry>
        </mxCell>
        <mxCell id="WZFhTyCouCG3s2GY0Dsn-83" value="Add fee" style="ellipse;whiteSpace=wrap;html=1;fillColor=#fff2cc;strokeColor=light-dark(#000000, #6d5100);strokeWidth=2;" vertex="1" parent="WZFhTyCouCG3s2GY0Dsn-77">
          <mxGeometry x="340" y="50" width="140" height="70" as="geometry" />
        </mxCell>
        <mxCell id="WZFhTyCouCG3s2GY0Dsn-84" value="Delete/End fee" style="ellipse;whiteSpace=wrap;html=1;fillColor=#fff2cc;strokeColor=light-dark(#000000, #6d5100);strokeWidth=2;" vertex="1" parent="WZFhTyCouCG3s2GY0Dsn-77">
          <mxGeometry x="340" y="360" width="140" height="70" as="geometry" />
        </mxCell>
        <mxCell id="WZFhTyCouCG3s2GY0Dsn-85" value="Edit/Update fee" style="ellipse;whiteSpace=wrap;html=1;fillColor=#fff2cc;strokeColor=light-dark(#000000, #6d5100);strokeWidth=2;" vertex="1" parent="WZFhTyCouCG3s2GY0Dsn-77">
          <mxGeometry x="340" y="257" width="140" height="70" as="geometry" />
        </mxCell>
        <mxCell id="WZFhTyCouCG3s2GY0Dsn-86" value="View fee information" style="ellipse;whiteSpace=wrap;html=1;fillColor=#fff2cc;strokeColor=light-dark(#000000, #6d5100);strokeWidth=2;" vertex="1" parent="WZFhTyCouCG3s2GY0Dsn-77">
          <mxGeometry x="340" y="153" width="140" height="70" as="geometry" />
        </mxCell>
        <mxCell id="WZFhTyCouCG3s2GY0Dsn-87" value="Search fee" style="ellipse;whiteSpace=wrap;html=1;fillColor=#fff2cc;strokeColor=light-dark(#000000, #6d5100);strokeWidth=2;" vertex="1" parent="WZFhTyCouCG3s2GY0Dsn-77">
          <mxGeometry x="590" y="257" width="140" height="70" as="geometry" />
        </mxCell>
        <mxCell id="WZFhTyCouCG3s2GY0Dsn-88" value="&amp;lt;&amp;lt;Include&amp;gt;&amp;gt;" style="endArrow=open;endSize=12;dashed=1;html=1;rounded=0;exitX=1;exitY=0.5;exitDx=0;exitDy=0;entryX=0;entryY=0;entryDx=0;entryDy=0;" edge="1" parent="WZFhTyCouCG3s2GY0Dsn-77" source="WZFhTyCouCG3s2GY0Dsn-86" target="WZFhTyCouCG3s2GY0Dsn-87">
          <mxGeometry width="160" relative="1" as="geometry">
            <mxPoint x="540" y="200" as="sourcePoint" />
            <mxPoint x="700" y="200" as="targetPoint" />
          </mxGeometry>
        </mxCell>
        <mxCell id="WZFhTyCouCG3s2GY0Dsn-89" value="&amp;lt;&amp;lt;Include&amp;gt;&amp;gt;" style="endArrow=open;endSize=12;dashed=1;html=1;rounded=0;exitX=1;exitY=0.5;exitDx=0;exitDy=0;entryX=0;entryY=1;entryDx=0;entryDy=0;" edge="1" parent="WZFhTyCouCG3s2GY0Dsn-77" source="WZFhTyCouCG3s2GY0Dsn-84" target="WZFhTyCouCG3s2GY0Dsn-87">
          <mxGeometry width="160" relative="1" as="geometry">
            <mxPoint x="490" y="198" as="sourcePoint" />
            <mxPoint x="621" y="277" as="targetPoint" />
          </mxGeometry>
        </mxCell>
        <mxCell id="WZFhTyCouCG3s2GY0Dsn-90" value="&amp;lt;&amp;lt;Include&amp;gt;&amp;gt;" style="endArrow=open;endSize=12;dashed=1;html=1;rounded=0;exitX=1;exitY=0.5;exitDx=0;exitDy=0;entryX=0;entryY=0.5;entryDx=0;entryDy=0;" edge="1" parent="WZFhTyCouCG3s2GY0Dsn-77" source="WZFhTyCouCG3s2GY0Dsn-85" target="WZFhTyCouCG3s2GY0Dsn-87">
          <mxGeometry width="160" relative="1" as="geometry">
            <mxPoint x="490" y="405" as="sourcePoint" />
            <mxPoint x="621" y="327" as="targetPoint" />
          </mxGeometry>
        </mxCell>
        <mxCell id="WZFhTyCouCG3s2GY0Dsn-107" value="Payment Management" style="swimlane;whiteSpace=wrap;html=1;" vertex="1" parent="1">
          <mxGeometry x="90" y="2060" width="770" height="470" as="geometry" />
        </mxCell>
        <mxCell id="WZFhTyCouCG3s2GY0Dsn-108" value="Manage payment" style="ellipse;whiteSpace=wrap;html=1;fillColor=#fff2cc;strokeColor=light-dark(#000000, #6d5100);strokeWidth=2;" vertex="1" parent="WZFhTyCouCG3s2GY0Dsn-107">
          <mxGeometry x="50" y="252" width="120" height="80" as="geometry" />
        </mxCell>
        <mxCell id="WZFhTyCouCG3s2GY0Dsn-109" value="Extends" style="endArrow=block;endSize=16;endFill=0;html=1;rounded=0;exitX=0;exitY=0.5;exitDx=0;exitDy=0;entryX=0.5;entryY=0;entryDx=0;entryDy=0;" edge="1" parent="WZFhTyCouCG3s2GY0Dsn-107" source="WZFhTyCouCG3s2GY0Dsn-113" target="WZFhTyCouCG3s2GY0Dsn-108">
          <mxGeometry width="160" relative="1" as="geometry">
            <mxPoint x="340" y="90" as="sourcePoint" />
            <mxPoint x="300" y="130" as="targetPoint" />
          </mxGeometry>
        </mxCell>
        <mxCell id="WZFhTyCouCG3s2GY0Dsn-110" value="Extends" style="endArrow=block;endSize=16;endFill=0;html=1;rounded=0;exitX=0;exitY=0.5;exitDx=0;exitDy=0;entryX=1;entryY=0;entryDx=0;entryDy=0;" edge="1" parent="WZFhTyCouCG3s2GY0Dsn-107" source="WZFhTyCouCG3s2GY0Dsn-116" target="WZFhTyCouCG3s2GY0Dsn-108">
          <mxGeometry width="160" relative="1" as="geometry">
            <mxPoint x="340" y="200" as="sourcePoint" />
            <mxPoint x="340" y="330" as="targetPoint" />
          </mxGeometry>
        </mxCell>
        <mxCell id="WZFhTyCouCG3s2GY0Dsn-111" value="Extends" style="endArrow=block;endSize=16;endFill=0;html=1;rounded=0;exitX=0;exitY=0.5;exitDx=0;exitDy=0;entryX=1;entryY=0.5;entryDx=0;entryDy=0;" edge="1" parent="WZFhTyCouCG3s2GY0Dsn-107" source="WZFhTyCouCG3s2GY0Dsn-115" target="WZFhTyCouCG3s2GY0Dsn-108">
          <mxGeometry width="160" relative="1" as="geometry">
            <mxPoint x="340" y="310" as="sourcePoint" />
            <mxPoint x="190" y="250" as="targetPoint" />
          </mxGeometry>
        </mxCell>
        <mxCell id="WZFhTyCouCG3s2GY0Dsn-112" value="Extends" style="endArrow=block;endSize=16;endFill=0;html=1;rounded=0;exitX=0;exitY=0.5;exitDx=0;exitDy=0;entryX=1;entryY=1;entryDx=0;entryDy=0;" edge="1" parent="WZFhTyCouCG3s2GY0Dsn-107" source="WZFhTyCouCG3s2GY0Dsn-114" target="WZFhTyCouCG3s2GY0Dsn-108">
          <mxGeometry width="160" relative="1" as="geometry">
            <mxPoint x="357.57359312880726" y="391.7157287525381" as="sourcePoint" />
            <mxPoint x="172" y="278" as="targetPoint" />
          </mxGeometry>
        </mxCell>
        <mxCell id="WZFhTyCouCG3s2GY0Dsn-113" value="Add payment" style="ellipse;whiteSpace=wrap;html=1;fillColor=#fff2cc;strokeColor=light-dark(#000000, #6d5100);strokeWidth=2;" vertex="1" parent="WZFhTyCouCG3s2GY0Dsn-107">
          <mxGeometry x="340" y="50" width="140" height="70" as="geometry" />
        </mxCell>
        <mxCell id="WZFhTyCouCG3s2GY0Dsn-114" value="Delete payment" style="ellipse;whiteSpace=wrap;html=1;fillColor=#fff2cc;strokeColor=light-dark(#000000, #6d5100);strokeWidth=2;" vertex="1" parent="WZFhTyCouCG3s2GY0Dsn-107">
          <mxGeometry x="340" y="360" width="140" height="70" as="geometry" />
        </mxCell>
        <mxCell id="WZFhTyCouCG3s2GY0Dsn-115" value="Edit/Update payment" style="ellipse;whiteSpace=wrap;html=1;fillColor=#fff2cc;strokeColor=light-dark(#000000, #6d5100);strokeWidth=2;" vertex="1" parent="WZFhTyCouCG3s2GY0Dsn-107">
          <mxGeometry x="340" y="257" width="140" height="70" as="geometry" />
        </mxCell>
        <mxCell id="WZFhTyCouCG3s2GY0Dsn-116" value="View payment information" style="ellipse;whiteSpace=wrap;html=1;fillColor=#fff2cc;strokeColor=light-dark(#000000, #6d5100);strokeWidth=2;" vertex="1" parent="WZFhTyCouCG3s2GY0Dsn-107">
          <mxGeometry x="340" y="153" width="140" height="70" as="geometry" />
        </mxCell>
        <mxCell id="WZFhTyCouCG3s2GY0Dsn-117" value="Search payment" style="ellipse;whiteSpace=wrap;html=1;fillColor=#fff2cc;strokeColor=light-dark(#000000, #6d5100);strokeWidth=2;" vertex="1" parent="WZFhTyCouCG3s2GY0Dsn-107">
          <mxGeometry x="590" y="257" width="140" height="70" as="geometry" />
        </mxCell>
        <mxCell id="WZFhTyCouCG3s2GY0Dsn-118" value="&amp;lt;&amp;lt;Include&amp;gt;&amp;gt;" style="endArrow=open;endSize=12;dashed=1;html=1;rounded=0;exitX=1;exitY=0.5;exitDx=0;exitDy=0;entryX=0;entryY=0;entryDx=0;entryDy=0;" edge="1" parent="WZFhTyCouCG3s2GY0Dsn-107" source="WZFhTyCouCG3s2GY0Dsn-116" target="WZFhTyCouCG3s2GY0Dsn-117">
          <mxGeometry width="160" relative="1" as="geometry">
            <mxPoint x="540" y="200" as="sourcePoint" />
            <mxPoint x="700" y="200" as="targetPoint" />
          </mxGeometry>
        </mxCell>
        <mxCell id="WZFhTyCouCG3s2GY0Dsn-119" value="&amp;lt;&amp;lt;Include&amp;gt;&amp;gt;" style="endArrow=open;endSize=12;dashed=1;html=1;rounded=0;exitX=1;exitY=0.5;exitDx=0;exitDy=0;entryX=0;entryY=1;entryDx=0;entryDy=0;" edge="1" parent="WZFhTyCouCG3s2GY0Dsn-107" source="WZFhTyCouCG3s2GY0Dsn-114" target="WZFhTyCouCG3s2GY0Dsn-117">
          <mxGeometry width="160" relative="1" as="geometry">
            <mxPoint x="490" y="198" as="sourcePoint" />
            <mxPoint x="621" y="277" as="targetPoint" />
          </mxGeometry>
        </mxCell>
        <mxCell id="WZFhTyCouCG3s2GY0Dsn-120" value="&amp;lt;&amp;lt;Include&amp;gt;&amp;gt;" style="endArrow=open;endSize=12;dashed=1;html=1;rounded=0;exitX=1;exitY=0.5;exitDx=0;exitDy=0;entryX=0;entryY=0.5;entryDx=0;entryDy=0;" edge="1" parent="WZFhTyCouCG3s2GY0Dsn-107" source="WZFhTyCouCG3s2GY0Dsn-115" target="WZFhTyCouCG3s2GY0Dsn-117">
          <mxGeometry width="160" relative="1" as="geometry">
            <mxPoint x="490" y="405" as="sourcePoint" />
            <mxPoint x="621" y="327" as="targetPoint" />
          </mxGeometry>
        </mxCell>
        <mxCell id="WZFhTyCouCG3s2GY0Dsn-144" value="Notify resident" style="ellipse;whiteSpace=wrap;html=1;fillColor=#fff2cc;strokeColor=light-dark(#000000, #6d5100);strokeWidth=2;" vertex="1" parent="1">
          <mxGeometry x="-160" y="1135" width="140" height="70" as="geometry" />
        </mxCell>
        <mxCell id="WZFhTyCouCG3s2GY0Dsn-145" value="Export report" style="ellipse;whiteSpace=wrap;html=1;fillColor=#fff2cc;strokeColor=light-dark(#000000, #6d5100);strokeWidth=2;" vertex="1" parent="1">
          <mxGeometry x="-160" y="1020" width="140" height="70" as="geometry" />
        </mxCell>
        <mxCell id="WZFhTyCouCG3s2GY0Dsn-146" value="Login" style="ellipse;whiteSpace=wrap;html=1;fillColor=#fff2cc;strokeColor=light-dark(#000000, #6d5100);strokeWidth=2;" vertex="1" parent="1">
          <mxGeometry x="-190" y="1300" width="140" height="70" as="geometry" />
        </mxCell>
        <mxCell id="WZFhTyCouCG3s2GY0Dsn-147" value="" style="endArrow=open;endFill=1;endSize=12;html=1;rounded=0;exitX=0.5;exitY=0;exitDx=0;exitDy=0;exitPerimeter=0;entryX=0;entryY=0.5;entryDx=0;entryDy=0;" edge="1" parent="1" source="WZFhTyCouCG3s2GY0Dsn-1" target="WZFhTyCouCG3s2GY0Dsn-49">
          <mxGeometry width="160" relative="1" as="geometry">
            <mxPoint x="-360" y="1020" as="sourcePoint" />
            <mxPoint x="-200" y="1020" as="targetPoint" />
          </mxGeometry>
        </mxCell>
        <mxCell id="WZFhTyCouCG3s2GY0Dsn-148" value="" style="endArrow=open;endFill=1;endSize=12;html=1;rounded=0;exitX=1;exitY=0.3333333333333333;exitDx=0;exitDy=0;exitPerimeter=0;entryX=0;entryY=0.5;entryDx=0;entryDy=0;" edge="1" parent="1" source="WZFhTyCouCG3s2GY0Dsn-1" target="WZFhTyCouCG3s2GY0Dsn-64">
          <mxGeometry width="160" relative="1" as="geometry">
            <mxPoint x="-445" y="1213" as="sourcePoint" />
            <mxPoint x="210" y="980" as="targetPoint" />
          </mxGeometry>
        </mxCell>
        <mxCell id="WZFhTyCouCG3s2GY0Dsn-149" value="" style="endArrow=open;endFill=1;endSize=12;html=1;rounded=0;exitX=1;exitY=1;exitDx=0;exitDy=0;exitPerimeter=0;entryX=0;entryY=0.5;entryDx=0;entryDy=0;" edge="1" parent="1" source="WZFhTyCouCG3s2GY0Dsn-1" target="WZFhTyCouCG3s2GY0Dsn-78">
          <mxGeometry width="160" relative="1" as="geometry">
            <mxPoint x="-500" y="1310" as="sourcePoint" />
            <mxPoint x="140" y="1440" as="targetPoint" />
          </mxGeometry>
        </mxCell>
        <mxCell id="WZFhTyCouCG3s2GY0Dsn-150" value="" style="endArrow=open;endFill=1;endSize=12;html=1;rounded=0;exitX=0;exitY=1;exitDx=0;exitDy=0;exitPerimeter=0;entryX=0;entryY=0.5;entryDx=0;entryDy=0;" edge="1" parent="1" source="WZFhTyCouCG3s2GY0Dsn-1" target="WZFhTyCouCG3s2GY0Dsn-108">
          <mxGeometry width="160" relative="1" as="geometry">
            <mxPoint x="-480" y="1210" as="sourcePoint" />
            <mxPoint x="160" y="1810" as="targetPoint" />
          </mxGeometry>
        </mxCell>
        <mxCell id="WZFhTyCouCG3s2GY0Dsn-151" value="" style="endArrow=open;endFill=1;endSize=12;html=1;rounded=0;exitX=0.25;exitY=0.1;exitDx=0;exitDy=0;exitPerimeter=0;entryX=0;entryY=0.5;entryDx=0;entryDy=0;" edge="1" parent="1" source="WZFhTyCouCG3s2GY0Dsn-1" target="WZFhTyCouCG3s2GY0Dsn-35">
          <mxGeometry width="160" relative="1" as="geometry">
            <mxPoint x="-495" y="1150" as="sourcePoint" />
            <mxPoint x="160" y="917" as="targetPoint" />
          </mxGeometry>
        </mxCell>
        <mxCell id="WZFhTyCouCG3s2GY0Dsn-152" value="" style="endArrow=open;endFill=1;endSize=12;html=1;rounded=0;exitX=0.25;exitY=0.1;exitDx=0;exitDy=0;exitPerimeter=0;entryX=0;entryY=0.5;entryDx=0;entryDy=0;" edge="1" parent="1" source="WZFhTyCouCG3s2GY0Dsn-1" target="WZFhTyCouCG3s2GY0Dsn-8">
          <mxGeometry width="160" relative="1" as="geometry">
            <mxPoint x="-502" y="1156" as="sourcePoint" />
            <mxPoint x="160" y="510" as="targetPoint" />
          </mxGeometry>
        </mxCell>
        <mxCell id="WZFhTyCouCG3s2GY0Dsn-153" value="" style="endArrow=open;endFill=1;endSize=12;html=1;rounded=0;exitX=0.5;exitY=0.5;exitDx=0;exitDy=0;exitPerimeter=0;entryX=0;entryY=0.5;entryDx=0;entryDy=0;" edge="1" parent="1" source="WZFhTyCouCG3s2GY0Dsn-1" target="WZFhTyCouCG3s2GY0Dsn-146">
          <mxGeometry width="160" relative="1" as="geometry">
            <mxPoint x="-480" y="1170" as="sourcePoint" />
            <mxPoint x="160" y="1300" as="targetPoint" />
          </mxGeometry>
        </mxCell>
        <mxCell id="WZFhTyCouCG3s2GY0Dsn-154" value="" style="endArrow=open;endFill=1;endSize=12;html=1;rounded=0;exitX=1;exitY=0.3333333333333333;exitDx=0;exitDy=0;exitPerimeter=0;entryX=0;entryY=0.5;entryDx=0;entryDy=0;" edge="1" parent="1" source="WZFhTyCouCG3s2GY0Dsn-1" target="WZFhTyCouCG3s2GY0Dsn-144">
          <mxGeometry width="160" relative="1" as="geometry">
            <mxPoint x="-495" y="1180" as="sourcePoint" />
            <mxPoint x="-270" y="1315" as="targetPoint" />
          </mxGeometry>
        </mxCell>
        <mxCell id="WZFhTyCouCG3s2GY0Dsn-155" value="" style="endArrow=open;endFill=1;endSize=12;html=1;rounded=0;exitX=1;exitY=0.3333333333333333;exitDx=0;exitDy=0;exitPerimeter=0;entryX=0;entryY=0.5;entryDx=0;entryDy=0;" edge="1" parent="1" source="WZFhTyCouCG3s2GY0Dsn-1" target="WZFhTyCouCG3s2GY0Dsn-145">
          <mxGeometry width="160" relative="1" as="geometry">
            <mxPoint x="-480" y="1170" as="sourcePoint" />
            <mxPoint x="-270" y="1125" as="targetPoint" />
          </mxGeometry>
        </mxCell>
      </root>
    </mxGraphModel>
  </diagram>
</mxfile>
